<?xml version="1.0" encoding="UTF-8"?>
<svg width="820px" height="500px" viewBox="0 0 820 500" version="1.1" xmlns="http://www.w3.org/2000/svg" xmlns:xlink="http://www.w3.org/1999/xlink">
    <!-- Generator: Sketch 55.2 (78181) - https://sketchapp.com -->
    <title>illo-page-not-found</title>
    <desc>Created with Sketch.</desc>
    <defs>
        <rect id="path-1" x="0" y="0" width="817" height="413"></rect>
        <radialGradient cx="49.0043826%" cy="50%" fx="49.0043826%" fy="50%" r="50%" gradientTransform="translate(0.490044,0.500000),scale(0.737643,1.000000),rotate(-90.000000),scale(1.000000,1.121983),translate(-0.490044,-0.500000)" id="radialGradient-3">
            <stop stop-color="#E8EEEE" offset="0%"></stop>
            <stop stop-color="#FFFFFF" offset="100%"></stop>
        </radialGradient>
        <polygon id="path-4" points="0.347564231 0.521 22.98 0.521 22.98 26.7588576 0.347564231 26.7588576"></polygon>
        <path d="M21.85,0.519 C22.182,0.519 22.509,0.525 22.83,0.537 C33.515,0.929 41.861,15.673 41.861,26.365 L41.861,65.035 L0.62,65.035 L0.62,20.78 C0.62,10.944 7.664,2.346 17.385,0.851 C18.771,0.638 20.257,0.519 21.85,0.519" id="path-6"></path>
        <linearGradient x1="99.999515%" y1="50.00031%" x2="-0.00072743144%" y2="50.00031%" id="linearGradient-8">
            <stop stop-color="#8AC691" offset="0%"></stop>
            <stop stop-color="#8AC691" offset="100%"></stop>
        </linearGradient>
        <path d="M42.33,48.5231064 L42.33,49.3366312 C42.273051,67.6550669 38.396,82.389 38.396,82.389 C38.396,82.389 15.363,77.269 0.284,72.53 C7.77,24.815 20.286,4.268 20.286,4.268 C20.286,4.268 23.68,0.554 28.601,0.554 C39.3296486,14.3575376 42.2806095,32.7016143 42.33,48.5231076 L42.33,48.5231064 Z" id="path-9"></path>
        <linearGradient x1="91.8874332%" y1="32.3995069%" x2="100.000135%" y2="32.3995069%" id="linearGradient-11">
            <stop stop-color="#D4EBDE" offset="0%"></stop>
            <stop stop-color="#B0DCDF" offset="100%"></stop>
        </linearGradient>
        <path d="M0.0599999999,31.47195 L0.0599999999,28.1336407 C0.976564479,14.9047471 12.045,0.122 12.045,0.122 L23.98,11.569 C23.98,11.569 15.745,21.777 17.378,31.203 C19.011,40.628 46.777,40.56 46.777,40.56 L46.777,49.135 C46.777,49.135 17.378,54.852 4.311,41.377 C1.58864751,38.5694307 0.336464182,35.140862 0.0599999999,31.4719494 L0.0599999999,31.47195 Z" id="path-12"></path>
        <linearGradient x1="9.01412391%" y1="28.4575056%" x2="-0.0115769773%" y2="28.4575056%" id="linearGradient-14">
            <stop stop-color="#8AC691" offset="0%"></stop>
            <stop stop-color="#8AC691" offset="100%"></stop>
        </linearGradient>
        <polygon id="path-15" points="0.819674239 0.725 44.0611001 0.725 44.0611001 145.94 0.819674239 145.94"></polygon>
        <path d="M29.758,0.731 L26.955,23.611 C26.413,28.037 24.471,32.174 21.411,35.419 L0.804,57.269 L2.846,62.389 C2.846,62.389 33.89,47.757 39.601,39.091 C45.311,30.425 48.17,3.998 48.17,3.998 L29.758,0.731" id="path-17"></path>
        <linearGradient x1="0%" y1="50%" x2="100%" y2="50%" id="linearGradient-19">
            <stop stop-color="#D4EBDE" offset="0%"></stop>
            <stop stop-color="#B0DCDF" offset="100%"></stop>
        </linearGradient>
    </defs>
    <g id="illo-page-not-found" stroke="none" stroke-width="1" fill="none" fill-rule="evenodd">
        <g id="Group-2" transform="translate(2.000000, 11.000000)">
            <g id="Oval">
                <mask id="mask-2" fill="white">
                    <use xlink:href="#path-1"></use>
                </mask>
                <g id="Mask"></g>
                <ellipse fill="url(#radialGradient-3)" mask="url(#mask-2)" cx="409" cy="413" rx="526" ry="388"></ellipse>
            </g>
            <g id="shutterstock_1390292588" transform="translate(149.000000, 209.000000)">
                <path d="M53.75,225.597 C53.75,225.597 56.914,228.532 64.128,230.369 C65.716,230.774 67.429,230.233 67.429,232.853 C64.06,232.853 58.674,232.853 58.674,232.853 L51.393,231.594 L51.393,232.853 L47.461,232.853 C47.461,232.853 46.366,226.422 48.663,225.597 C50.789,225.597 53.75,225.597 53.75,225.597" id="Fill-1" fill="#1B2441"></path>
                <path d="M53.308,220.977 L53.75,225.597 C52.315,226.591 50.431,226.655 48.933,225.758 L48.663,225.597 L47.846,220.977 L53.308,220.977" id="Fill-2" fill="#F0AB85"></path>
                <path d="M22.044,225.597 C22.044,225.597 25.208,228.532 32.422,230.369 C34.011,230.774 35.723,230.233 35.723,232.853 C32.354,232.853 26.969,232.853 26.969,232.853 L19.687,231.594 L19.687,232.853 L15.755,232.853 C15.755,232.853 14.66,226.422 16.957,225.597 C19.084,225.597 22.044,225.597 22.044,225.597" id="Fill-3" fill="#1B2441"></path>
                <path d="M21.601,220.977 L22.044,225.597 C20.61,226.591 18.726,226.655 17.227,225.758 L16.957,225.597 L16.14,220.977 L21.601,220.977" id="Fill-4" fill="#F0AB85"></path>
                <polyline id="Fill-5" fill="#EC967C" points="34.776 25.101 35.694 34.143 26.005 34.527 27.947 20.509 34.776 25.101"></polyline>
                <g id="Group-9" transform="translate(22.000000, 0.000000)">
                    <mask id="mask-5" fill="white">
                        <use xlink:href="#path-4"></use>
                    </mask>
                    <g id="Clip-7"></g>
                    <path d="M15.752,26.754 C16.878,26.723 17.921,26.554 18.467,26.11 C21.714,21.388 18.016,8.66 18.016,8.66 L12.827,6.475 L6.233,10.588 L5.858,19.117 C5.758,21.394 6.851,23.578 8.802,25 C10.89,26.173 13.301,26.822 15.752,26.754" id="Fill-6" fill="#F0AB85" mask="url(#mask-5)"></path>
                    <path d="M7.272,15.422 C7.634,13.989 7.445,10.683 8.904,10.922 C9.968,11.096 13.615,11.246 14.843,11.246 C17.767,11.246 22.98,10.102 22.98,5.652 C22.98,3.426 20.822,1.508 19.455,0.938 C18.114,0.378 16.599,0.404 15.226,0.884 C12.005,2.01 7.735,4.494 6.031,4.151 C3.166,3.575 0.307,5.256 0.348,7.691 C0.391,10.291 1.747,14.203 3.026,16.689 C3.766,18.127 4.755,19.417 5.947,20.509 L7.272,15.422" id="Fill-8" fill="#1B2441" mask="url(#mask-5)"></path>
                </g>
                <path d="M26.307,15.743 C26.958,15.168 28.179,15.277 29.032,15.987 C29.885,16.697 30.048,17.739 29.396,18.315 C28.745,18.89 27.524,18.781 26.671,18.071 C25.818,17.361 25.655,16.319 26.307,15.743" id="Fill-10" fill="#F0AB85"></path>
                <g id="Group-13" transform="translate(9.000000, 31.000000)">
                    <mask id="mask-7" fill="white">
                        <use xlink:href="#path-6"></use>
                    </mask>
                    <g id="Clip-12"></g>
                    <path d="M21.85,0.519 C22.182,0.519 22.509,0.525 22.83,0.537 C33.515,0.929 41.861,15.673 41.861,26.365 L41.861,65.035 L0.62,65.035 L0.62,20.78 C0.62,10.944 7.664,2.346 17.385,0.851 C18.771,0.638 20.257,0.519 21.85,0.519" id="Fill-11" fill="url(#linearGradient-8)" mask="url(#mask-7)"></path>
                </g>
                <path d="M50.861,96.035 C55.575,118.908 56.3,143.526 56.407,164.188 C56.579,197.471 53.848,221.795 53.848,221.795 L47.042,221.795 L32.832,126.654 C32.832,126.654 31.283,140.802 29.186,164.795 C27.54,183.622 26.763,199.537 22.342,221.795 C15.494,221.795 15.514,221.795 15.514,221.795 C15.514,221.795 9.62,153.096 9.62,96.035 C25.608,96.035 42.636,96.035 50.861,96.035" id="Fill-14" fill="#1B2441"></path>
                <polyline id="Fill-15" fill="#407346" points="35.263 29.077 26.647 29.077 25.276 32.249 36.372 32.249 35.263 29.077"></polyline>
                <path d="M476.864,223.555 C476.864,223.555 472.947,227.188 464.019,229.463 C462.053,229.964 459.933,229.294 459.933,232.537 C464.103,232.537 470.769,232.537 470.769,232.537 L479.781,230.979 L479.781,232.537 L484.649,232.537 C484.649,232.537 486.005,224.577 483.161,223.555 C480.529,223.555 476.864,223.555 476.864,223.555" id="Fill-16" fill="#1B2441"></path>
                <path d="M477.412,217.838 L476.864,223.555 C478.641,224.787 480.973,224.865 482.827,223.756 L483.161,223.555 L485.184,217.838 L477.412,217.838" id="Fill-17" fill="#F0AB85"></path>
                <path d="M503.985,223.555 C503.985,223.555 500.068,227.188 491.14,229.463 C489.174,229.964 487.054,229.294 487.054,232.537 C491.224,232.537 497.891,232.537 497.891,232.537 L506.902,230.979 L506.902,232.537 L511.77,232.537 C511.77,232.537 513.126,224.577 510.283,223.555 C507.65,223.555 503.985,223.555 503.985,223.555" id="Fill-18" fill="#1B2441"></path>
                <path d="M504.533,217.838 L503.985,223.555 C505.762,224.787 508.094,224.865 509.948,223.756 L510.283,223.555 L512.305,217.838 L504.533,217.838" id="Fill-19" fill="#F0AB85"></path>
                <polyline id="Fill-20" fill="#EC967C" points="494.758 29.936 496.286 39.268 504.601 35.554 501.858 24.354 494.758 29.936"></polyline>
                <path d="M491.738,30.799 C490.576,30.767 489.5,30.592 488.936,30.134 C485.586,25.26 489.402,12.124 489.402,12.124 L494.758,9.869 L501.563,14.113 L501.95,22.917 C502.054,25.267 500.926,27.521 498.912,28.989 C496.757,30.199 494.269,30.868 491.738,30.799" id="Fill-21" fill="#F0AB85"></path>
                <path d="M499.674,16.653 C499.301,15.173 497.862,14.212 496.356,14.458 C495.258,14.638 493.944,14.793 492.678,14.793 C489.659,14.793 485.912,13.612 485.912,9.019 C485.912,4.425 491.555,6 491.555,6 C491.555,6 503.146,7.758 507.638,11.123 C509.786,12.733 506.192,17.845 504.873,20.41 C504.109,21.894 503.089,23.226 501.858,24.354 L499.674,16.653" id="Fill-22" fill="#1B2441"></path>
                <path d="M503.552,19.435 C502.879,18.841 501.62,18.953 500.739,19.686 C499.858,20.419 499.69,21.494 500.363,22.088 C501.036,22.682 502.295,22.57 503.175,21.837 C504.056,21.104 504.224,20.029 503.552,19.435" id="Fill-23" fill="#F0AB85"></path>
                <g id="Group-26" transform="translate(476.000000, 35.000000)">
                    <mask id="mask-10" fill="white">
                        <use xlink:href="#path-9"></use>
                    </mask>
                    <g id="Clip-25"></g>
                    <polygon id="Fill-24" fill="url(#linearGradient-11)" mask="url(#mask-10)" points="-475.94 199.94 42.33 199.94 42.33 -34.479 -475.94 -34.479"></polygon>
                </g>
                <path d="M476.284,107.53 C476.284,107.53 465.804,142.705 465.804,158.63 C465.804,174.554 476.284,219.47 476.284,219.47 L485.912,219.47 C485.912,219.47 488.165,188.051 485.397,170.408 C484.584,165.22 484.969,159.924 486.439,154.883 C491.603,137.193 497.109,113.273 497.109,113.273 L476.284,107.53" id="Fill-27" fill="#1B2441"></path>
                <path d="M483.462,110.34 C483.462,110.34 480.747,148.537 485.095,162.305 C489.442,176.073 503.964,219.47 503.964,219.47 L512.47,219.47 C512.47,219.47 514.645,195.835 507.755,170.762 C506.083,164.679 506.339,158.237 508.37,152.265 C515.01,132.742 514.396,117.389 514.396,117.389 L483.462,110.34" id="Fill-28" fill="#13374D"></path>
                <polyline id="Fill-29" fill="#A0D2BB" points="495.802 36.312 503.964 31.811 504.601 35.554 495.802 40.12 495.802 36.312"></polyline>
                <path d="M91.336,34.412 C89.733,38.206 90.034,42.212 91.697,45.522 L66.169,37.969 C62.019,36.741 57.66,39.111 56.432,43.26 L35.864,112.781 C34.636,116.931 37.005,121.291 41.155,122.519 L118.19,145.31 L128.011,112.115 C124.666,114.246 120.39,114.87 116.312,113.341 C110.446,111.142 106.893,104.931 108.003,98.765 C109.416,90.917 117.248,86.239 124.68,88.438 C128.477,89.561 131.374,92.253 132.899,95.593 L143.205,60.76 L110.162,50.985 C112.957,49.347 115.168,46.697 116.159,43.344 C118.371,35.87 113.662,27.993 105.766,26.58 C99.772,25.507 93.706,28.804 91.336,34.412" id="Fill-30" fill="#3EB34B"></path>
                <path d="M44.005,88.55 L53.132,89.599 C56.865,89.742 59.855,84.429 60.859,80.365 C61.009,79.755 60.447,79.207 59.836,79.356 C56.632,80.142 48.385,82.22 46.2,83.308 L44.005,88.55" id="Fill-31" fill="#F0AB85"></path>
                <g id="Group-34" transform="translate(0.000000, 42.000000)">
                    <mask id="mask-13" fill="white">
                        <use xlink:href="#path-12"></use>
                    </mask>
                    <g id="Clip-33"></g>
                    <polygon id="Fill-32" fill="url(#linearGradient-14)" mask="url(#mask-13)" points="0.06 192.94 518.33 192.94 518.33 -41.479 0.06 -41.479"></polygon>
                </g>
                <path d="M9.62,86.947 C22.782,94.527 43.506,91.29 46.369,90.794 L46.369,82.967 C42.765,82.938 18.558,82.4 16.976,73.273 C15.33,63.774 23.322,53.735 23.663,53.313 L24.298,53.825 C24.217,53.926 16.197,63.995 17.78,73.133 C19.329,82.067 46.224,82.152 46.77,82.152 L46.777,82.152 L47.186,82.151 L47.186,91.471 L46.855,91.536 C46.721,91.562 40.601,92.714 32.73,92.714 C25.402,92.714 16.563,91.702 9.62,87.866 L9.62,86.947" id="Fill-35" fill="#407346"></path>
                <path d="M300.763,107.09 C300.402,107.303 299.239,108.152 298.067,110.775 C297.017,113.129 296.37,118.691 294.144,116.822 C293.601,114.035 292.613,110.811 292.613,110.811 C292.458,109.1 294.051,106.711 295.348,105.413 L299.863,101.899 C299.863,101.899 302.721,102.446 302.859,102.449 L303.205,102.943 C302.276,103.973 301.298,105.843 300.763,107.09" id="Fill-36" fill="#F0AB85"></path>
                <path d="M299.335,107.528 C299.335,107.528 299.181,107.566 298.931,107.691 C298.903,107.32 298.853,106.956 298.793,106.594 C299.193,105.31 299.551,104.012 299.936,102.723 C300.694,103.071 301.758,103.558 301.84,103.579 L301.103,112.566 C301.103,112.566 299.942,112.915 299.46,111.06 C298.978,109.205 299.335,107.528 299.335,107.528" id="Fill-37" fill="#F0AB85"></path>
                <path d="M314.068,62.266 L298.623,103.645 L301.867,104.903 C301.867,104.903 313.936,86.324 326.017,64.982 C337.357,44.948 314.068,62.266 314.068,62.266" id="Fill-38" fill="#F0AB85"></path>
                <path d="M314.068,62.266 C314.068,62.266 321.949,43.918 332.627,43.918 C343.305,43.918 331.639,45.277 345.232,43.918 C354.525,42.988 362.753,59.12 362.753,59.12 L352.356,64.697 L351.241,89.725 L326.215,89.725 L324.789,65.565 L314.068,62.266" id="Fill-39" fill="#21837F"></path>
                <path d="M332.627,36.489 L332.627,43.918 L332.687,43.963 C335.665,46.169 339.702,46.284 342.799,44.25 L343.305,43.918 L341.65,35.367 L332.627,36.489" id="Fill-40" fill="#EC967C"></path>
                <path d="M327.576,20.96 C327.576,20.96 326.957,37.686 336.56,37.686 C346.162,37.686 346.161,19.411 346.161,19.411 L337.799,11.048 L327.576,20.96" id="Fill-41" fill="#F0AB85"></path>
                <path d="M339.037,15.694 C339.037,15.694 335.531,21.513 331.586,23.991 C329.673,25.193 328.703,27.411 329.183,29.619 C329.787,32.399 333.086,34.771 332.656,37.388 C331.959,41.645 334.067,45.941 336.466,49.527 C343.772,60.449 336.865,78.264 326.64,78.264 C315.12,78.264 316.617,64.729 317.469,62.305 C318.394,59.668 317.694,56.687 315.606,54.831 C314.089,53.482 312.708,51.718 312.708,49.767 C312.708,47.426 314.785,43.459 316.696,40.304 C318.645,37.087 320.823,30.443 321.221,26.702 C323.24,7.717 336.63,7.667 337.238,7.718 C343.854,8.268 349.811,13.925 349.923,20.563 C350.053,28.285 352.435,44.092 354.525,46.979 C347.685,49.971 338.76,45.121 341.312,34.277 C341.812,32.154 345.962,26.252 345.776,24.367 C345.044,16.895 339.037,15.694 339.037,15.694" id="Fill-42" fill="#1B2441"></path>
                <path d="M358.902,214.993 L360.622,219.466 C361.045,220.696 361.869,221.739 362.963,222.439 C364.172,223.214 366.065,224.173 368.883,225.006 C365.437,227.948 359.954,224.997 356.817,222.824 C355.288,221.765 354.207,220.185 353.752,218.383 L353.033,214.993 L358.902,214.993" id="Fill-43" fill="#F0AB85"></path>
                <path d="M353.407,217.32 C353.407,217.32 351.076,219.152 351.504,221.487 C351.931,223.822 352.536,229.291 352.536,229.291 L354.932,229.291 L354.858,224.19 C354.865,223.856 359.997,229.291 360.866,229.291 L373.546,229.291 C373.546,229.291 374.389,225.85 366.942,224.745 C359.497,223.638 353.407,217.32 353.407,217.32" id="Fill-44" fill="#13374D"></path>
                <path d="M340.108,19.996 C338.872,20.832 337.542,21.544 336.155,22.144 C334.933,23.966 333.402,25.56 331.658,26.908 C332.478,29.492 332.874,32.183 332.774,34.789 C332.752,35.368 332.697,35.932 332.627,36.489 C333.697,37.237 334.99,37.686 336.56,37.686 C343.138,37.686 345.209,29.112 345.861,23.709 C343.72,22.853 341.796,21.564 340.108,19.996" id="Fill-45" fill="#F0AB85"></path>
                <path d="M343.731,27.081 C343.063,26.387 343.193,25.092 344.022,24.188 C344.851,23.283 346.064,23.113 346.732,23.807 C347.4,24.501 347.27,25.797 346.442,26.7 C345.613,27.605 344.4,27.775 343.731,27.081" id="Fill-46" fill="#F0AB85"></path>
                <g id="Group-50" transform="translate(316.000000, 89.000000)">
                    <mask id="mask-16" fill="white">
                        <use xlink:href="#path-15"></use>
                    </mask>
                    <g id="Clip-48"></g>
                    <path d="M41.05,68.871 C50.296,21.014 35.298,0.725 35.298,0.725 L10.195,0.725 C10.195,0.725 -3.292,20.239 4.444,68.871 C4.444,68.871 -0.189,91.174 2.591,125.993 C5.681,125.993 8.46,125.993 8.46,125.993 L15.62,74.757 L22.747,28.52 L29.874,74.757 L37.033,125.993 C37.033,125.993 39.813,125.993 42.902,125.993 C45.683,91.174 41.05,68.871 41.05,68.871" id="Fill-47" fill="#13374D" mask="url(#mask-16)"></path>
                    <path d="M2.346,128.968 L0.969,136.42 C0.579,138.53 0.956,140.716 2.064,142.554 C3.091,144.255 4.464,146 5.771,146 C7.237,146 8.882,144.118 10.018,142.514 C10.939,141.214 11.265,139.585 10.92,138.028 L8.769,128.32 L2.346,128.968" id="Fill-49" fill="#13374D" mask="url(#mask-16)"></path>
                </g>
                <path d="M318.591,214.993 L317.781,224.793 C317.688,225.919 318.261,227.015 319.27,227.522 C319.914,227.844 320.757,228.101 321.808,228.101 C322.817,228.101 323.636,227.864 324.27,227.558 C325.333,227.047 325.902,225.862 325.747,224.692 L324.46,214.993 L318.591,214.993" id="Fill-51" fill="#F0AB85"></path>
                <path d="M337.461,57.123 L278.318,99.055 C274.788,101.558 273.955,106.449 276.458,109.98 L291.341,130.971 C291.987,127.242 294.225,123.788 297.868,121.717 C303.209,118.683 310.097,119.81 314.185,124.396 C319.525,130.388 318.358,139.496 311.997,144.006 C309.033,146.108 305.5,146.813 302.179,146.258 L322.922,175.515 L352.282,154.699 C351.173,158.839 352.074,163.479 355.264,167.017 C359.319,171.518 366.1,172.649 371.398,169.712 C378.416,165.822 380.326,156.845 375.818,150.487 C373.45,147.147 369.814,145.24 366.027,144.954 L388.458,129.051 C391.988,126.548 392.821,121.657 390.318,118.126 L348.387,58.983 C345.883,55.452 340.992,54.62 337.461,57.123" id="Fill-52" fill="#FACB57"></path>
                <path d="M362.753,59.12 C362.753,59.12 375.278,82.911 370.013,86.318 C364.747,89.725 344.137,77.224 344.137,77.224 L345.232,73.817 L356.658,74.238 L352.356,64.697 L362.753,59.12" id="Fill-53" fill="#F0AB85"></path>
                <path d="M369.407,79.217 C361.009,73.903 346.026,74.854 345.868,74.864 L345.809,73.936 C346.471,73.895 361.25,72.954 369.904,78.432 L369.407,79.217" id="Fill-54" fill="#EC967C"></path>
                <path d="M343.188,72.002 C342.746,71.966 341.249,71.699 338.92,69.749 C336.83,68 333.638,63.014 332.388,65.822 C333.164,68.722 333.721,72.244 333.721,72.244 C334.366,73.941 336.986,75.473 338.82,76.104 L344.739,77.351 C344.739,77.351 347.201,75.507 347.332,75.44 L346.869,74.261 C345.509,73.713 344.274,72.938 343.188,72.002" id="Fill-55" fill="#F0AB85"></path>
                <path d="M341.628,72.247 C341.628,72.247 341.465,72.283 341.169,72.28 C341.314,72.645 341.436,73.014 341.546,73.385 C342.521,74.421 343.464,75.488 344.428,76.533 C344.985,75.852 345.77,74.897 345.838,74.838 L340.974,66.641 C340.974,66.641 339.709,66.848 340.11,68.834 C340.513,70.82 341.628,72.247 341.628,72.247" id="Fill-56" fill="#F0AB85"></path>
                <path d="M476.707,54.963 C477.211,59.382 475.515,63.992 471.626,67.002 C466.74,70.783 459.713,70.638 454.997,66.648 C448.846,61.444 448.717,52.228 454.399,46.842 C457.549,43.856 461.775,42.732 465.748,43.402 L446.083,22.655 C443.105,19.514 438.145,19.382 435.005,22.359 L415.603,40.749 C415.433,37.123 413.805,33.544 410.657,30.986 C405.96,27.169 399.125,27.046 394.293,30.691 C387.812,35.578 387.178,44.84 392.6,50.56 C394.891,52.976 397.87,54.337 400.942,54.646 L382.347,72.272 C379.206,75.249 379.073,80.209 382.051,83.35 L431.964,136.008 C434.941,139.149 439.901,139.281 443.042,136.304 L495.699,86.391 C498.841,83.414 498.974,78.454 495.996,75.313 L476.707,54.963" id="Fill-57" fill="#13374D"></path>
                <path d="M462.26,112.855 C461.839,113.109 460.311,113.847 456.855,113.689 C453.755,113.548 447.395,111.365 448.248,114.557 C450.98,116.523 453.953,119.159 453.953,119.159 C455.724,120.186 459.145,119.8 461.231,119.156 L467.406,116.403 C467.406,116.403 468.314,113.25 468.385,113.109 L467.143,112.405 C465.539,112.815 463.89,112.951 462.26,112.855" id="Fill-58" fill="#F0AB85"></path>
                <path d="M461.035,114.069 C461.035,114.069 460.914,114.204 460.647,114.392 C461.033,114.609 461.402,114.844 461.762,115.089 C463.362,115.341 464.955,115.641 466.553,115.909 C466.573,114.97 466.605,113.652 466.625,113.559 L456.51,109.724 C456.51,109.724 455.523,110.714 457.278,112.144 C459.033,113.573 461.035,114.069 461.035,114.069" id="Fill-59" fill="#F0AB85"></path>
                <g id="Group-62" transform="translate(465.000000, 55.000000)">
                    <mask id="mask-18" fill="white">
                        <use xlink:href="#path-17"></use>
                    </mask>
                    <g id="Clip-61"></g>
                    <path d="M29.758,0.731 L26.955,23.611 C26.413,28.037 24.471,32.174 21.411,35.419 L0.804,57.269 L2.846,62.389 C2.846,62.389 33.89,47.757 39.601,39.091 C45.311,30.425 48.17,3.998 48.17,3.998 L29.758,0.731" id="Fill-60" fill="url(#linearGradient-19)" mask="url(#mask-18)"></path>
                </g>
                <path d="M511.547,67.798 C510.207,76.276 507.767,88.545 504.26,93.866 C499.022,101.814 471.677,115.101 468.063,116.833 L466.28,112.361 L486.709,90.698 C489.85,87.367 491.804,83.205 492.36,78.66 L493.617,68.406 C493.357,68.259 493.102,68.105 492.851,67.944 L491.551,78.561 C491.015,82.931 489.135,86.935 486.114,90.138 L465.508,111.99 L465.328,112.178 L467.627,117.943 L468.02,117.758 C469.292,117.158 499.233,102.978 504.942,94.316 C508.663,88.669 511.154,75.827 512.47,67.286 C512.167,67.464 511.859,67.635 511.547,67.798" id="Fill-63" fill="#5BBDB7"></path>
                <path d="M144.362,217.653 C144.362,217.653 142.023,218.892 142.026,221.012 C142.03,223.133 141.691,228.035 141.691,228.035 L143.797,228.417 L144.544,223.923 C144.603,223.631 148.321,228.67 150.851,231.2 L160.156,231.38 C160.156,231.38 161.444,228.49 155.077,226.334 C148.709,224.175 144.362,217.653 144.362,217.653" id="Fill-64" fill="#005C5A"></path>
                <path d="M151.925,180.5 C151.962,178.925 152.167,176.365 152.473,174.82 C153.54,169.413 155.774,165.272 157.121,163.141 C159.403,162.295 161.587,161.239 163.918,160.317 C166.357,159.352 168.994,158.736 172.162,157.978 C172.046,158.292 171.929,158.606 171.81,158.922 C158.18,194.883 150.56,211.216 149.371,215.082 C149.189,215.673 149.021,216.258 149.086,216.872 C149.283,218.738 150.152,222.727 155.616,226.525 C149.815,227.97 144.362,217.653 144.362,217.653 C144.362,217.653 151.637,192.876 151.925,180.5" id="Fill-65" fill="#EC967C"></path>
                <polyline id="Fill-66" fill="#EC967C" points="180.012 35.056 179.394 44.829 169.85 42.856 170.997 29.572 180.012 35.056"></polyline>
                <path d="M182.213,35.158 C183.608,35.116 184.9,34.887 185.576,34.283 C189.599,27.873 185.017,10.593 185.017,10.593 L170.42,13.211 L169.955,24.79 C169.831,27.881 171.185,30.846 173.602,32.777 C176.189,34.369 179.177,35.25 182.213,35.158" id="Fill-67" fill="#F0AB85"></path>
                <path d="M172.817,221.062 C172.817,221.062 170.809,222.641 171.177,224.654 C171.545,226.667 172.066,231.38 172.066,231.38 L174.132,231.38 L174.068,226.983 C174.074,226.696 178.498,231.38 179.247,231.38 L190.176,231.38 C190.176,231.38 190.903,228.415 184.485,227.462 C178.066,226.508 172.817,221.062 172.817,221.062" id="Fill-68" fill="#005C5A"></path>
                <path d="M167.275,183.937 C166.764,182.447 166.068,179.974 165.818,178.42 C164.945,172.978 164.869,165.353 165.393,162.887 C167.24,161.302 169.659,162.521 171.525,160.848 C173.479,159.096 175.739,157.604 178.447,155.796 C178.448,156.13 178.447,156.465 178.444,156.802 C178.129,195.259 176.644,213.22 176.869,217.258 C176.904,217.876 178.726,225.823 185.168,227.49 C180.228,230.857 172.817,221.062 172.817,221.062 C172.817,221.062 171.296,195.645 167.275,183.937" id="Fill-69" fill="#F0AB85"></path>
                <path d="M179.499,43.166 L188.668,58.147 C189.797,60.525 190.093,63.214 189.508,65.781 L183.684,91.346 C183.346,92.83 183.16,94.343 183.128,95.864 L181.737,162.887 L152.462,162.887 C152.462,162.887 156.177,149.659 158.034,132.581 C159.892,115.503 154.456,108.073 155.97,100.598 C156.862,96.194 159.484,90.617 163.176,86.008 C165.114,83.588 166.134,80.569 166.21,77.469 C166.521,64.792 153.245,29.794 165.916,38.31 C178.588,46.827 179.499,43.166 179.499,43.166" id="Fill-70" fill="#629968"></path>
                <path d="M230.745,65.859 C231.187,65.888 232.708,65.845 235.299,64.261 C237.624,62.84 241.518,58.382 242.338,61.343 C241.143,64.096 240.072,67.496 240.072,67.496 C239.183,69.079 236.366,70.207 234.458,70.561 L228.421,70.919 C228.421,70.919 226.259,68.731 226.14,68.646 L226.771,67.549 C228.198,67.207 229.533,66.624 230.745,65.859" id="Fill-71" fill="#F0AB85"></path>
                <polyline id="Fill-72" fill="#005C5A" points="170.871 87.779 180.496 81.293 176.832 55.641 175.931 55.77 179.514 80.856 171.394 86.329 165.402 65.906 164.529 66.162 170.871 87.779"></polyline>
                <path d="M174.75,17.472 C177.552,19.048 180.416,19.376 182.628,19.294 C185.512,19.187 189.126,16.828 190.342,14.211 C191.368,12.003 191.592,9.71 188.189,7.144 C185.858,5.411 182.961,6.497 181.712,7.62 C180.785,8.454 179.42,8.515 178.469,7.708 C176.673,6.185 173.433,4.244 168.588,4.244 C163.512,4.244 163.652,9.168 164.424,12.744 C164.882,14.871 163.999,17.073 162.148,18.218 C159.134,20.085 155.298,23.127 156.086,26.17 C156.721,28.616 158.17,30.865 159.461,32.502 C160.721,34.099 160.733,36.367 159.504,37.988 C157.631,40.459 155.437,44.048 156.086,46.646 C156.702,49.106 158.535,52.262 160.01,54.54 C161.057,56.154 161.048,58.215 160.015,59.839 C159.207,61.108 158.562,62.818 158.985,64.766 C159.302,66.222 160.027,67.589 160.838,68.752 C162.215,70.729 165.222,70.491 166.292,68.332 C169.617,61.621 175.438,47.883 173.405,37.405 C172.386,32.15 170.997,22.879 170.997,22.879 C170.997,22.879 169.495,15.236 174.75,17.472" id="Fill-73" fill="#1B2441"></path>
                <path d="M182.336,74.219 L193.512,80.01 C194.907,80.733 196.527,80.891 198.036,80.453 L228.773,70.746 L228.773,66.866 L198.817,70.502 L189.447,65.521 L182.336,74.219" id="Fill-74" fill="#F0AB85"></path>
                <path d="M169.083,20.21 C169.891,19.428 171.402,19.576 172.459,20.54 C173.516,21.504 173.718,22.919 172.911,23.7 C172.103,24.482 170.592,24.334 169.535,23.37 C168.478,22.406 168.276,20.991 169.083,20.21" id="Fill-75" fill="#F0AB85"></path>
                <path d="M180.005,73.115 L183.101,54.003 L196.374,69.256 L192.734,81.125 L180.087,74.583 C180.466,73.123 180.087,74.583 180.005,73.115" id="Fill-76" fill="#629968"></path>
                <path d="M185.516,83.308 C185.162,83.05 185.162,83.05 184.801,82.807 L188.978,65.66 C189.534,63.224 189.249,60.638 188.204,58.431 L179.151,43.61 C179.446,43.399 179.354,43.429 179.499,43.166 C179.532,43.106 179.905,43.091 180.001,43.075 L189.16,57.914 C190.335,60.392 190.647,63.229 190.038,65.902" id="Fill-77" fill="#5BBDB7"></path>
                <path d="M232.251,66.332 C232.251,66.332 232.408,66.391 232.7,66.432 C232.503,66.771 232.328,67.118 232.165,67.469 C231.047,68.349 229.958,69.264 228.85,70.156 C228.399,69.4 227.763,68.339 227.706,68.272 L233.728,60.885 C233.728,60.885 234.948,61.276 234.257,63.18 C233.566,65.084 232.251,66.332 232.251,66.332" id="Fill-78" fill="#F0AB85"></path>
                <path d="M196.258,133.635 C197.262,129.641 199.914,126.624 203.235,124.982 L170.967,112.893 L199.151,37.664 C200.669,33.611 205.186,31.556 209.239,33.074 L277.13,58.51 C281.183,60.028 283.237,64.544 281.719,68.597 L272.324,93.675 C270.936,89.961 267.898,86.887 263.721,85.653 C257.713,83.877 251.137,86.697 248.311,92.288 C244.713,99.405 248.151,107.856 255.408,110.574 C259.116,111.964 263.05,111.559 266.278,109.811 L253.535,143.827 L221.267,131.738 C222.513,134.728 222.682,138.175 221.456,141.449 C218.721,148.748 210.219,152.202 203.062,148.576 C197.632,145.825 194.773,139.54 196.258,133.635" id="Fill-79" fill="#13374D"></path>
                <path d="M180.005,81.074 L180.693,83.532 C181.076,84.897 181.561,85.413 182.667,87.243 C185.894,92.626 196.766,105.808 196.766,105.808 L205.555,110.791 C205.555,110.791 205.374,112.06 203.38,111.697 C201.387,111.335 199.937,110.248 199.937,110.248 C199.937,110.248 199.573,111.693 201.387,114.596 C202.742,116.765 207.088,120.461 204.105,121.12 C201.387,119.942 198.052,117.771 198.052,117.771 C196.495,116.91 195.414,115.387 195.115,113.633 L194.32,108.979 L175.659,93.725 C173.586,92.031 172.037,89.781 171.194,87.24 L171.132,87.054 L180.005,81.074" id="Fill-80" fill="#F0AB85"></path>
            </g>
        </g>
    </g>
</svg>