<?xml version="1.0" encoding="UTF-8"?>
<svg width="194px" height="40px" viewBox="0 0 194 40" version="1.1" xmlns="http://www.w3.org/2000/svg" xmlns:xlink="http://www.w3.org/1999/xlink">
    <!-- Generator: Sketch 55.2 (78181) - https://sketchapp.com -->
    <title>logo</title>
    <desc>Created with Sketch.</desc>
    <defs>
        <polygon id="path-1" points="0.0348808338 0.05745 11.0658549 0.05745 11.0658549 18.2857143 0.0348808338 18.2857143"></polygon>
    </defs>
    <g id="logo" stroke="none" stroke-width="1" fill="none" fill-rule="evenodd">
        <path d="M22.9831638,21.2043764 C22.9797192,21.2152971 22.9761788,21.2262655 22.9725907,21.2371385 C22.8370533,21.6452579 22.8871921,22.091576 23.1403259,22.4396555 L29.1843431,30.7512625 C29.395854,31.0421632 29.7425195,31.1957684 30.1024852,31.1778851 C30.7800283,31.1442169 31.4612074,31.4423187 31.8901617,32.0312735 C32.5642123,32.9603914 32.3585859,34.260384 31.4295357,34.9348923 C30.4995287,35.6094005 29.2004659,35.3994274 28.525315,34.4726462 C28.0964563,33.8826422 28.0243101,33.1419421 28.2677319,32.5076831 C28.3961885,32.1730518 28.3567664,31.7978375 28.1458775,31.5076998 L22.1042045,23.1966174 C21.8518363,22.8494917 21.4434541,22.6609308 21.0133994,22.6637444 C21.0087587,22.6637921 21.0041659,22.6637921 20.999573,22.6637921 C20.995315,22.6637921 20.9910571,22.6637921 20.9867991,22.6637444 C20.5566965,22.6611215 20.1483144,22.849444 19.8958983,23.1966174 L13.8533164,31.5078429 C13.6424752,31.7978852 13.6030053,32.1729088 13.7312706,32.5074923 C13.9744531,33.1417514 13.901685,33.8825945 13.4736396,34.4726462 C12.7973405,35.3994274 11.4985169,35.6050609 10.5694189,34.9348923 C9.63917261,34.258095 9.4336898,32.9603914 10.109989,32.0312735 C10.5391825,31.4418895 11.2195961,31.1437877 11.898718,31.1779328 C12.2587315,31.1960545 12.6053492,31.0421632 12.8168601,30.7512148 L18.858868,22.4396555 C19.111906,22.091576 19.161997,21.6453533 19.0264596,21.2372815 C19.0228236,21.2262655 19.0192354,21.2152971 19.0157908,21.2042333 C18.8885302,20.7982598 18.5805213,20.4739293 18.1747226,20.3423087 L8.41058158,17.1756393 C8.07305395,17.0661462 7.69615207,17.122228 7.42297237,17.3481291 C6.89311857,17.7861494 6.15768628,17.9523443 5.45378208,17.7254417 C4.36182875,17.3703044 3.76466079,16.1999772 4.11907677,15.1098624 C4.47464096,14.0177446 5.64620393,13.4191567 6.73839648,13.7743894 C7.44220499,14.0031519 7.94000443,14.5705991 8.11099291,15.2354743 C8.19907064,15.5781649 8.47081507,15.844363 8.80824702,15.9539515 L18.5709528,19.1241021 C18.98144,19.2573919 19.4239815,19.1684049 19.7713169,18.9129368 C19.7794022,18.9070234 19.7874876,18.90111 19.7956686,18.8953397 C20.1431474,18.6474064 20.359012,18.2562641 20.359012,17.8302614 L20.359012,7.55598034 C20.359012,7.19535878 20.1663988,6.86878691 19.8637482,6.67116514 C19.2949029,6.29971825 18.9207281,5.66002271 18.9212543,4.93019563 C18.9220198,3.83850707 19.8005485,2.91081977 20.8944155,2.85697929 C22.0914785,2.79803612 23.0777481,3.75114146 23.0777481,4.93172166 C23.0777481,5.67137261 22.6928087,6.31831683 22.1118115,6.68699778 C21.8120314,6.87718011 21.6422868,7.21762938 21.6422868,7.57186066 L21.6422868,17.8313582 C21.6422868,18.2570748 21.8580558,18.647931 22.2051519,18.896055 C22.2127109,18.9014915 22.2203179,18.9069757 22.2278291,18.9125076 C22.575308,19.1681187 23.0179452,19.2572965 23.4285281,19.1239591 L33.1905162,15.9539992 C33.5280917,15.844363 33.799884,15.5782126 33.8881531,15.2354743 C34.0593329,14.5705991 34.5575629,14.0031519 35.2596491,13.7743894 C36.3516981,13.4214934 37.5243615,14.0177446 37.8798778,15.1098624 C38.2342938,16.1999772 37.6372215,17.3703044 36.5451247,17.7254417 C35.8421773,17.9523443 35.1064101,17.7861494 34.5757909,17.3492737 C34.3021327,17.1239925 33.9253744,17.0682445 33.5878946,17.1776422 L23.8244233,20.342404 C23.4185769,20.4739293 23.1105201,20.7983552 22.9831638,21.2043764 M39.2449152,10.0662155 C39.0776584,9.55213182 38.5237399,9.27081648 38.0082388,9.43810826 L27.0572252,12.9911511 C26.711995,13.103124 26.3576747,12.8466545 26.3576747,12.484793 L26.3576747,0.977760376 C26.3576747,0.4377818 25.9184821,0 25.3767634,0 L16.6233873,0 C16.0816207,0 15.6424281,0.4377818 15.6424281,0.977760376 L15.6424281,12.4848407 C15.6424281,12.8467022 15.2881557,13.1031717 14.9429254,12.9911511 L3.99081148,9.43806057 C3.47526254,9.27081648 2.92129621,9.5522272 2.75408726,10.0663108 L0.0480772563,18.3867879 C-0.118844632,18.9000132 0.162803163,19.4510078 0.677443103,19.6180612 L11.6323797,23.1742991 C11.9770359,23.2861767 12.1121905,23.7004957 11.8995313,23.9930655 L5.12936324,33.305085 C4.81197723,33.7416269 4.90895363,34.3518985 5.34623253,34.6693142 L12.4317294,39.8122966 C12.8704435,40.1307137 13.4851218,40.0336196 13.8035125,39.5955517 L20.5670305,30.2901609 C20.7803116,29.9967326 21.2189301,29.9967326 21.4322112,30.2901132 L28.1967817,39.5958378 C28.5151246,40.0338103 29.1296593,40.1309521 29.5683256,39.8127258 L36.6525307,34.6737015 C37.0898575,34.3564766 37.1870252,33.7461096 36.8696871,33.3094724 L30.0983229,23.9930655 C29.8856159,23.7004957 30.0208662,23.2862244 30.3655223,23.1743468 L41.3225162,19.6180612 C41.837204,19.4510078 42.1188996,18.8999655 41.951882,18.3866925 L39.2449152,10.0662155 Z" id="Fill-1" fill="#3FB34F"></path>
        <g id="Group-24" transform="translate(53.000000, 9.000000)">
            <path d="M18.7537168,7.18241429 C16.2410208,7.18241429 15.1763167,8.81491429 14.9031337,10.9908429 L22.5486024,10.9908429 C22.5486024,8.89648571 21.2387433,7.18241429 18.7537168,7.18241429 M19.1083315,18.6912714 C15.0401912,18.6912714 13.0474103,15.5894857 13.0474103,12.2695571 C13.0474103,7.86255714 15.6408927,5.7682 18.7537168,5.7682 C22.439573,5.7682 24.4329273,8.10734286 24.4329273,12.4062 L14.8483681,12.4062 C14.9306599,15.2367 16.5961373,17.1679143 19.2448871,17.1679143 C20.7194733,17.1679143 21.920303,16.6234143 22.9040773,15.5354143 L23.9688531,16.6509857 C22.7946177,17.9020571 21.2924337,18.6912714 19.1083315,18.6912714" id="Fill-1" fill="#494949"></path>
            <polygon id="Fill-3" fill="#494949" points="35.3124357 18.3385214 31.625576 13.27695 27.9949156 18.3385214 26.1105907 18.3385214 30.5884698 12.16145 26.1929542 6.12095 28.2405724 6.12095 31.898759 11.1275929 35.4756573 6.12095 37.3319542 6.12095 32.9098444 12.1880214 37.3594804 18.3385214"></polygon>
            <path d="M41.15871,7.59131429 L38.9474401,7.59131429 L38.9474401,6.12095714 L41.15871,6.12095714 L41.15871,1.7406 L42.8788813,1.7406 L42.8788813,6.12095714 L46.5647375,6.12095714 L46.5647375,7.59131429 L42.8788813,7.59131429 L42.8788813,13.5216 C42.8788813,15.3713143 43.4253191,17.1403857 45.827982,17.1403857 C46.2101228,17.1403857 46.5647375,17.0863857 46.8379922,17.0313857 L47.0840791,18.5821714 C46.6741971,18.6372429 46.0188015,18.6912429 45.4457695,18.6912429 C41.9784741,18.6912429 41.15871,16.1053857 41.15871,13.5767429 L41.15871,7.59131429 Z" id="Fill-5" fill="#494949"></path>
            <path d="M56.7770872,7.59131429 L54.5662473,7.59131429 L54.5662473,6.12095714 L56.7770872,6.12095714 L56.7770872,1.7406 L58.4972585,1.7406 L58.4972585,6.12095714 L62.1831146,6.12095714 L62.1831146,7.59131429 L58.4972585,7.59131429 L58.4972585,13.5216 C58.4972585,15.3713143 59.0431228,17.1403857 61.4463592,17.1403857 C61.8285,17.1403857 62.1831146,17.0863857 62.4562977,17.0313857 L62.7024563,18.5821714 C62.2925742,18.6372429 61.6377522,18.6912429 61.0635732,18.6912429 C57.5962062,18.6912429 56.7770872,16.1053857 56.7770872,13.5767429 L56.7770872,7.59131429 Z" id="Fill-7" fill="#494949"></path>
            <path d="M74.1969024,18.3385214 L74.1969024,10.4473786 C74.1969024,8.38059286 72.6957936,7.29159286 70.892757,7.29159286 C68.9818379,7.29159286 67.9169904,8.24395 67.2891927,9.35945 L67.2891927,18.3385214 L65.5690931,18.3385214 L65.5690931,2.14285714e-05 L67.2891927,2.14285714e-05 L67.2891927,7.64545 C68.0807855,6.61052143 69.4187443,5.76823571 71.3577631,5.76823571 C73.8966233,5.76823571 75.9170738,7.26502143 75.9170738,10.0935214 L75.9170738,18.3385214 L74.1969024,18.3385214 Z" id="Fill-9" fill="#494949"></path>
            <path d="M84.5690976,7.18241429 C81.6752643,7.18241429 80.5281967,9.30541429 80.5281967,12.2164857 C80.5281967,15.0736286 81.6752643,17.2760571 84.5690976,17.2760571 C87.4634326,17.2760571 88.6100701,15.1551286 88.6100701,12.2430571 C88.6100701,9.38598571 87.4634326,7.18241429 84.5690976,7.18241429 M84.5690976,18.6912714 C80.6095566,18.6912714 78.6708962,15.7791286 78.6708962,12.1879857 C78.6708962,8.5977 80.6095566,5.7682 84.5690976,5.7682 C88.5282084,5.7682 90.4667971,8.67927143 90.4667971,12.2695571 C90.4667971,15.8617714 88.5282084,18.6912714 84.5690976,18.6912714" id="Fill-11" fill="#494949"></path>
            <path d="M93.2207343,14.2843929 L93.2207343,6.12096429 L94.9408339,6.12096429 L94.9408339,14.0386071 C94.9408339,15.9973214 96.4972101,17.1944643 98.353507,17.1944643 C100.319694,17.1944643 101.793778,16.1053929 101.793778,14.1211786 L101.793778,6.12096429 L103.513878,6.12096429 L103.513878,14.2843929 C103.513878,16.8681786 101.711916,18.69125 98.353507,18.69125 C95.0502935,18.69125 93.2207343,16.8416786 93.2207343,14.2843929" id="Fill-13" fill="#494949"></path>
            <path d="M10.2931577,10.0591571 L10.2931577,18.2225857 L8.57298638,18.2225857 L8.57298638,10.3049429 C8.57298638,8.34622857 7.01668185,7.14908571 5.16038495,7.14908571 C3.19412669,7.14908571 1.72011398,8.23815714 1.72011398,10.2223714 L1.72011398,18.2225857 L1.43365531e-05,18.2225857 L1.43365531e-05,10.0591571 C1.43365531e-05,7.47537143 1.8019757,5.65222857 5.16038495,5.65222857 C8.46352679,5.65222857 10.2931577,7.50187143 10.2931577,10.0591571" id="Fill-15" fill="#494949"></path>
            <g id="Group-19" transform="translate(106.233859, 5.710786)">
                <mask id="mask-2" fill="white">
                    <use xlink:href="#path-1"></use>
                </mask>
                <g id="Clip-18"></g>
                <path d="M6.83305928,11.0206643 C7.65217824,11.0206643 8.52713808,10.9125929 9.3451818,10.64145 L9.3451818,2.01616429 C8.47179898,1.74395 7.54322044,1.58080714 6.58747412,1.58080714 C3.61127738,1.58080714 1.89117773,3.45802143 1.89117773,6.28745 C1.89117773,9.30773571 3.83026823,11.0206643 6.83305928,11.0206643 L6.83305928,11.0206643 Z M11.0658549,12.98045 C11.0658549,16.81645 8.74512537,18.2857357 5.41323874,18.2857357 C3.28325704,18.2857357 1.70028653,17.4976643 0.52648124,16.2453786 L1.64552089,15.12995 C2.60184067,16.1638786 3.91155648,16.76245 5.46793269,16.76245 C8.03496421,16.76245 9.3451818,15.72845 9.3451818,13.3068071 L9.3451818,12.2178071 C8.47179898,12.43595 7.59855953,12.5451643 6.66876238,12.5451643 C3.31099827,12.5451643 0.0348808338,10.6680214 0.0348808338,6.31395 C0.0348808338,2.69630714 2.57417112,0.05745 6.75076746,0.05745 C8.19918943,0.05745 9.59083864,0.356235714 11.0658549,0.765092857 L11.0658549,12.98045 Z" id="Fill-17" fill="#494949" mask="url(#mask-2)"></path>
            </g>
            <path d="M129.298097,18.3385214 L129.298097,10.4473786 C129.298097,8.38059286 127.795913,7.29159286 125.994381,7.29159286 C124.083462,7.29159286 123.018686,8.24395 122.390459,9.35945 L122.390459,18.3385214 L120.670359,18.3385214 L120.670359,2.14285714e-05 L122.390459,2.14285714e-05 L122.390459,7.64545 C123.18198,6.61052143 124.519365,5.76823571 126.458527,5.76823571 C128.997746,5.76823571 131.018268,7.26502143 131.018268,10.0935214 L131.018268,18.3385214 L129.298097,18.3385214 Z" id="Fill-20" fill="#494949"></path>
            <path d="M135.048044,7.59131429 L132.836272,7.59131429 L132.836272,6.12095714 L135.048044,6.12095714 L135.048044,1.7406 L136.768717,1.7406 L136.768717,6.12095714 L140.454573,6.12095714 L140.454573,7.59131429 L136.768717,7.59131429 L136.768717,13.5216 C136.768717,15.3713143 137.314079,17.1403857 139.717889,17.1403857 C140.099457,17.1403857 140.454573,17.0863857 140.727254,17.0313857 L140.973843,18.5821714 C140.564033,18.6372429 139.908637,18.6912429 139.335103,18.6912429 C135.867808,18.6912429 135.048044,16.1053857 135.048044,13.5767429 L135.048044,7.59131429 Z" id="Fill-22" fill="#494949"></path>
        </g>
    </g>
</svg>